<?xml version="1.0" encoding="iso-8859-1"?>
<!-- Generator: Adobe Illustrator 18.0.0, SVG Export Plug-In . SVG Version: 6.00 Build 0)  -->
<!DOCTYPE svg PUBLIC "-//W3C//DTD SVG 1.1//EN" "http://www.w3.org/Graphics/SVG/1.1/DTD/svg11.dtd">
<svg xmlns="http://www.w3.org/2000/svg" xmlns:xlink="http://www.w3.org/1999/xlink" version="1.1" id="Capa_1" x="0px" y="0px" viewBox="0 0 495.931 495.931" style="enable-background:new 0 0 495.931 495.931;" xml:space="preserve" width="512px" height="512px">
<g>
	<path d="M247.956,0C150.77,0,71.991,198.762,71.991,295.955c0,97.193,78.779,199.976,175.965,199.976   c97.201,0,175.984-102.783,175.984-199.976C423.94,198.762,345.157,0,247.956,0z M328.62,243.919   c-5.115,9.878-15.443,16.642-27.316,16.642c-6.627,0-12.773-2.099-17.793-5.67v58.004c9.072,5.357,15.186,15.243,15.186,26.529   c0,11.879-6.756,22.208-16.633,27.332c-4.344,14.721-17.986,25.491-34.107,25.491c-16.104,0-29.744-10.771-34.09-25.491   c-9.877-5.132-16.635-15.459-16.635-27.332c0-11.286,6.1-21.164,15.188-26.521v-58.012c-5.035,3.571-11.164,5.67-17.793,5.67   c-11.873,0-22.199-6.764-27.316-16.642c-14.719-4.344-25.498-17.986-25.498-34.089c0-16.113,10.779-29.747,25.498-34.099   c5.117-9.877,15.443-16.642,27.316-16.642c0.918,0,1.836,0.04,2.721,0.121c-0.064-0.893-0.115-1.803-0.115-2.71   c0-11.873,6.758-22.202,16.635-27.333c4.346-14.721,17.986-25.492,34.09-25.492c16.121,0,29.764,10.771,34.107,25.492   c9.877,5.124,16.633,15.452,16.633,27.333c0,0.908-0.031,1.817-0.111,2.71c0.885-0.081,1.803-0.121,2.719-0.121   c11.873,0,22.201,6.764,27.316,16.642c14.721,4.353,25.5,17.986,25.5,34.099C354.12,225.934,343.341,239.576,328.62,243.919z" fill="#FFFFFF"/>
	<path d="M318.565,190.757h-2.977v-0.893c0-7.897-6.402-14.301-14.285-14.301c-7.9,0-14.318,6.403-14.318,14.301v0.893h-19.949   v-19.956h0.9c7.883,0,14.287-6.404,14.287-14.301c0-7.899-6.404-14.302-14.287-14.302h-0.9v-2.976   c0-10.529-8.541-19.072-19.08-19.072c-10.52,0-19.063,8.543-19.063,19.072v2.976h-0.885c-7.9,0-14.303,6.403-14.303,14.302   c0,7.897,6.402,14.301,14.303,14.301h0.885v19.956h-19.949v-0.893c0-7.897-6.42-14.301-14.318-14.301   c-7.883,0-14.285,6.403-14.285,14.301v0.893h-2.977c-10.537,0-19.08,8.543-19.08,19.073c0,10.528,8.543,19.063,19.08,19.063h2.977   v0.893c0,7.899,6.402,14.301,14.285,14.301c7.898,0,14.318-6.401,14.318-14.301v-0.893h19.949v96.236h-0.885   c-7.9,0-14.303,6.395-14.303,14.294c0,7.899,6.402,14.301,14.303,14.301h0.885v2.977c0,10.537,8.543,19.072,19.063,19.072   c10.539,0,19.08-8.535,19.08-19.072v-2.977h0.9c7.883,0,14.287-6.402,14.287-14.301c0-7.899-6.404-14.294-14.287-14.294h-0.9   v-96.236h19.949v0.893c0,7.899,6.418,14.301,14.318,14.301c7.883,0,14.285-6.401,14.285-14.301v-0.893h2.977   c10.537,0,19.08-8.535,19.08-19.063C337.645,199.3,329.102,190.757,318.565,190.757z" fill="#FFFFFF"/>
</g>
<g>
</g>
<g>
</g>
<g>
</g>
<g>
</g>
<g>
</g>
<g>
</g>
<g>
</g>
<g>
</g>
<g>
</g>
<g>
</g>
<g>
</g>
<g>
</g>
<g>
</g>
<g>
</g>
<g>
</g>
</svg>
