<?xml version="1.0" encoding="iso-8859-1"?>
<!-- Generator: Adobe Illustrator 19.0.0, SVG Export Plug-In . SVG Version: 6.00 Build 0)  -->
<svg version="1.1" id="Capa_1" xmlns="http://www.w3.org/2000/svg" xmlns:xlink="http://www.w3.org/1999/xlink" x="0px" y="0px"
	 viewBox="0 0 57 57" style="enable-background:new 0 0 57 57;" xml:space="preserve">
<g>
	<g>
		<path d="M54.488,51.941c-0.006-0.095-0.024-0.186-0.056-0.275c-0.013-0.037-0.028-0.071-0.045-0.105
			c-0.036-0.073-0.083-0.139-0.137-0.203c-0.024-0.028-0.045-0.058-0.072-0.084c-0.011-0.01-0.017-0.023-0.028-0.032L47.5,45.541
			V18.995C47.5,8.521,38.977,0,28.5,0s-19,8.521-19,18.995V45.54l-6.651,5.701c-0.011,0.009-0.017,0.022-0.028,0.032
			c-0.027,0.026-0.048,0.055-0.072,0.084c-0.054,0.063-0.1,0.13-0.137,0.203c-0.017,0.035-0.032,0.069-0.045,0.105
			c-0.032,0.089-0.05,0.18-0.056,0.275C2.511,51.961,2.5,51.979,2.5,52v4c0,0.553,0.448,1,1,1h50c0.552,0,1-0.447,1-1v-4
			C54.5,51.979,54.489,51.961,54.488,51.941z M11.5,18.995C11.5,9.624,19.126,2,28.5,2s17,7.624,17,16.995V45h-34V18.995z M10.87,47
			h35.26l4.667,4H6.203L10.87,47z M52.5,55h-48v-2h48V55z"/>
		<path d="M36.5,14h-5v-4c0-0.553-0.448-1-1-1h-4c-0.552,0-1,0.447-1,1v4h-5c-0.552,0-1,0.447-1,1v4c0,0.553,0.448,1,1,1h5v12
			c0,0.553,0.448,1,1,1h4c0.552,0,1-0.447,1-1V20h5c0.552,0,1-0.447,1-1v-4C37.5,14.447,37.052,14,36.5,14z M35.5,18h-5
			c-0.552,0-1,0.447-1,1v12h-2V19c0-0.553-0.448-1-1-1h-5v-2h5c0.552,0,1-0.447,1-1v-4h2v4c0,0.553,0.448,1,1,1h5V18z"/>
	</g>
</g>
<g>
</g>
<g>
</g>
<g>
</g>
<g>
</g>
<g>
</g>
<g>
</g>
<g>
</g>
<g>
</g>
<g>
</g>
<g>
</g>
<g>
</g>
<g>
</g>
<g>
</g>
<g>
</g>
<g>
</g>
</svg>
