<?xml version="1.0" standalone="no"?>
<!DOCTYPE svg PUBLIC "-//W3C//DTD SVG 20010904//EN"
 "http://www.w3.org/TR/2001/REC-SVG-20010904/DTD/svg10.dtd">
<svg version="1.0" xmlns="http://www.w3.org/2000/svg"
 width="223.000000pt" height="255.000000pt" viewBox="0 0 223.000000 255.000000"
 preserveAspectRatio="xMidYMid meet">
<metadata>
Created by potrace 1.15, written by Peter Selinger 2001-2017
</metadata>
<g transform="translate(0.000000,255.000000) scale(0.100000,-0.100000)"
fill="#000000" stroke="none">
<path d="M0 1275 l0 -1275 1115 0 1115 0 0 1275 0 1275 -1115 0 -1115 0 0
-1275z m343 -595 c25 -22 51 -55 57 -74 6 -18 21 -42 33 -54 l22 -21 1 63 c1
35 6 71 11 81 16 29 47 -85 41 -154 -5 -52 -3 -58 23 -79 l27 -22 -9 35 c-6
20 -9 52 -7 73 l3 37 32 -60 c17 -33 37 -81 43 -106 9 -37 18 -49 45 -62 l34
-16 -24 46 c-14 25 -25 55 -25 67 0 17 9 12 51 -29 28 -28 64 -71 81 -97 19
-29 39 -48 50 -48 10 0 18 -4 18 -10 0 -30 -212 81 -299 157 -46 41 -69 54
-57 34 9 -15 -21 -21 -54 -11 -38 11 -51 21 -91 71 l-31 39 34 -6 c18 -4 52
-17 76 -30 l43 -23 -33 46 c-22 30 -45 49 -68 57 -34 11 -67 55 -85 114 -9 32
6 27 58 -18z m1627 28 c0 -7 -13 -35 -28 -63 -21 -38 -35 -53 -62 -61 -23 -8
-46 -27 -68 -57 l-33 -46 43 23 c24 13 58 26 76 30 l33 6 -19 -28 c-32 -44
-66 -72 -101 -82 -34 -10 -64 -4 -55 11 12 21 -15 7 -42 -22 -68 -71 -314
-203 -314 -168 0 5 9 9 20 9 12 0 29 16 46 42 27 44 123 148 136 148 10 0 -16
-72 -38 -105 l-17 -26 36 17 c29 14 37 25 47 63 6 25 26 73 43 106 l32 60 3
-44 c2 -24 -1 -56 -7 -72 l-10 -30 29 23 c27 22 28 26 23 79 -7 70 23 183 40
153 6 -10 11 -47 11 -81 l1 -62 28 26 c15 15 27 36 27 47 0 11 22 41 50 68 50
48 70 59 70 36z m-691 -133 c45 -23 56 -81 22 -124 -18 -24 -18 -24 20 -61 33
-31 39 -43 39 -78 0 -32 -7 -49 -29 -74 l-29 -33 -170 -3 c-140 -3 -176 0
-201 13 -34 17 -61 61 -61 97 0 32 34 85 59 93 26 8 26 12 1 50 -28 42 -25 72
9 106 l29 29 142 0 c104 0 148 -4 169 -15z"/>
<path d="M1096 565 c-9 -25 -7 -328 3 -344 5 -8 16 -11 25 -8 15 6 16 28 14
184 -3 155 -5 178 -19 181 -9 2 -19 -4 -23 -13z"/>
<path d="M985 401 c-50 -21 -81 -90 -64 -141 12 -34 55 -52 96 -41 28 7 28 8
31 99 3 90 2 92 -20 91 -13 0 -32 -4 -43 -8z"/>
<path d="M1187 403 c-13 -13 -7 -149 7 -168 20 -28 83 -26 107 4 38 46 12 132
-45 156 -38 16 -59 19 -69 8z"/>
</g>
</svg>
